solid wing
 facet normal -1 0 -0
  outer loop
   vertex 0.00121399 0.0253091 2.81
   vertex 0.00121399 0.0253091 0
   vertex 0.00121399 0.0248186 0
  endloop
 endfacet
 facet normal -1 -0 0
  outer loop
   vertex 0.00121399 0.0253091 2.81
   vertex 0.00121399 0.0248186 0
   vertex 0.00121399 0.0248186 2.81
  endloop
 endfacet
 facet normal -0.987429 -0.158064 -0
  outer loop
   vertex 0.00121399 0.0248186 2.81
   vertex 0.00121399 0.0248186 0
   vertex 0.00129372 0.0243205 0
  endloop
 endfacet
 facet normal 0 0 -1
  outer loop
   vertex 0.00129666 0.0258195 0
   vertex 0.00129372 0.0243205 0
   vertex 0.00121399 0.0248186 0
  endloop
 endfacet
 facet normal 0 0 -1
  outer loop
   vertex 0.00129666 0.0258195 0
   vertex 0.00121399 0.0248186 0
   vertex 0.00121399 0.0253091 0
  endloop
 endfacet
 facet normal -0.987136 0.159883 0
  outer loop
   vertex 0.00129666 0.0258195 2.81
   vertex 0.00121399 0.0253091 0
   vertex 0.00121399 0.0253091 2.81
  endloop
 endfacet
 facet normal 0 0 1
  outer loop
   vertex 0.00121399 0.0248186 2.81
   vertex 0.00129666 0.0258195 2.81
   vertex 0.00121399 0.0253091 2.81
  endloop
 endfacet
 facet normal -0.987136 0.159883 0
  outer loop
   vertex 0.00129666 0.0258195 2.81
   vertex 0.00129666 0.0258195 0
   vertex 0.00121399 0.0253091 0
  endloop
 endfacet
 facet normal -0.987429 -0.158064 0
  outer loop
   vertex 0.00121399 0.0248186 2.81
   vertex 0.00129372 0.0243205 0
   vertex 0.00129372 0.0243205 2.81
  endloop
 endfacet
 facet normal 0 -0 1
  outer loop
   vertex 0.00129372 0.0243205 2.81
   vertex 0.00129666 0.0258195 2.81
   vertex 0.00121399 0.0248186 2.81
  endloop
 endfacet
 facet normal -0.953567 -0.301182 -0
  outer loop
   vertex 0.00129372 0.0243205 2.81
   vertex 0.00129372 0.0243205 0
   vertex 0.00146383 0.0237819 0
  endloop
 endfacet
 facet normal 0 -0 -1
  outer loop
   vertex 0.00148673 0.0264028 0
   vertex 0.00183071 0.0270843 0
   vertex 0.00129372 0.0243205 0
  endloop
 endfacet
 facet normal 0 -0 -1
  outer loop
   vertex 0.00183071 0.0270843 0
   vertex 0.00240054 0.0278856 0
   vertex 0.00129372 0.0243205 0
  endloop
 endfacet
 facet normal 0 0 -1
  outer loop
   vertex 0.00129372 0.0243205 0
   vertex 0.00240054 0.0278856 0
   vertex 0.00326816 0.0287815 0
  endloop
 endfacet
 facet normal 0 0 -1
  outer loop
   vertex 0.00129372 0.0243205 0
   vertex 0.00326816 0.0287815 0
   vertex 0.0044257 0.0296524 0
  endloop
 endfacet
 facet normal 0 0 -1
  outer loop
   vertex 0.0044257 0.0296524 0
   vertex 0.00146383 0.0237819 0
   vertex 0.00129372 0.0243205 0
  endloop
 endfacet
 facet normal 0 0 -1
  outer loop
   vertex 0.00148673 0.0264028 0
   vertex 0.00129372 0.0243205 0
   vertex 0.00129666 0.0258195 0
  endloop
 endfacet
 facet normal -0.950791 0.309832 0
  outer loop
   vertex 0.00148673 0.0264028 2.81
   vertex 0.00148673 0.0264028 0
   vertex 0.00129666 0.0258195 0
  endloop
 endfacet
 facet normal -0.950791 0.309832 0
  outer loop
   vertex 0.00148673 0.0264028 2.81
   vertex 0.00129666 0.0258195 0
   vertex 0.00129666 0.0258195 2.81
  endloop
 endfacet
 facet normal 0 0 1
  outer loop
   vertex 0.00129372 0.0243205 2.81
   vertex 0.00148673 0.0264028 2.81
   vertex 0.00129666 0.0258195 2.81
  endloop
 endfacet
 facet normal -0.953567 -0.301182 0
  outer loop
   vertex 0.00129372 0.0243205 2.81
   vertex 0.00146383 0.0237819 0
   vertex 0.00146383 0.0237819 2.81
  endloop
 endfacet
 facet normal 0 0 1
  outer loop
   vertex 0.00240054 0.0278856 2.81
   vertex 0.00183071 0.0270843 2.81
   vertex 0.00129372 0.0243205 2.81
  endloop
 endfacet
 facet normal -0 0 1
  outer loop
   vertex 0.00240054 0.0278856 2.81
   vertex 0.00129372 0.0243205 2.81
   vertex 0.00326816 0.0287815 2.81
  endloop
 endfacet
 facet normal 0 0 1
  outer loop
   vertex 0.00183071 0.0270843 2.81
   vertex 0.00148673 0.0264028 2.81
   vertex 0.00129372 0.0243205 2.81
  endloop
 endfacet
 facet normal -0 0 1
  outer loop
   vertex 0.00326816 0.0287815 2.81
   vertex 0.00129372 0.0243205 2.81
   vertex 0.0044257 0.0296524 2.81
  endloop
 endfacet
 facet normal 0 0 1
  outer loop
   vertex 0.0044257 0.0296524 2.81
   vertex 0.00129372 0.0243205 2.81
   vertex 0.00146383 0.0237819 2.81
  endloop
 endfacet
 facet normal -0.896158 -0.443735 -0
  outer loop
   vertex 0.00146383 0.0237819 2.81
   vertex 0.00146383 0.0237819 0
   vertex 0.00182387 0.0230548 0
  endloop
 endfacet
 facet normal 0 0 -1
  outer loop
   vertex 0.0044257 0.0296524 0
   vertex 0.00182387 0.0230548 0
   vertex 0.00146383 0.0237819 0
  endloop
 endfacet
 facet normal -0.892743 0.450567 0
  outer loop
   vertex 0.00183071 0.0270843 2.81
   vertex 0.00183071 0.0270843 0
   vertex 0.00148673 0.0264028 0
  endloop
 endfacet
 facet normal -0.892743 0.450567 0
  outer loop
   vertex 0.00183071 0.0270843 2.81
   vertex 0.00148673 0.0264028 0
   vertex 0.00148673 0.0264028 2.81
  endloop
 endfacet
 facet normal -0.814932 0.579557 0
  outer loop
   vertex 0.00240054 0.0278856 2.81
   vertex 0.00240054 0.0278856 0
   vertex 0.00183071 0.0270843 0
  endloop
 endfacet
 facet normal -0.814932 0.579557 0
  outer loop
   vertex 0.00240054 0.0278856 2.81
   vertex 0.00183071 0.0270843 0
   vertex 0.00183071 0.0270843 2.81
  endloop
 endfacet
 facet normal -0.71838 0.695651 0
  outer loop
   vertex 0.00326816 0.0287815 2.81
   vertex 0.00326816 0.0287815 0
   vertex 0.00240054 0.0278856 0
  endloop
 endfacet
 facet normal -0.71838 0.695651 0
  outer loop
   vertex 0.00326816 0.0287815 2.81
   vertex 0.00240054 0.0278856 0
   vertex 0.00240054 0.0278856 2.81
  endloop
 endfacet
 facet normal -0.6012 0.799099 0
  outer loop
   vertex 0.0044257 0.0296524 2.81
   vertex 0.0044257 0.0296524 0
   vertex 0.00326816 0.0287815 0
  endloop
 endfacet
 facet normal -0.6012 0.799099 0
  outer loop
   vertex 0.0044257 0.0296524 2.81
   vertex 0.00326816 0.0287815 0
   vertex 0.00326816 0.0287815 2.81
  endloop
 endfacet
 facet normal -0.498691 0.86678 0
  outer loop
   vertex 0.00635841 0.0307644 2.81
   vertex 0.00635841 0.0307644 0
   vertex 0.0044257 0.0296524 0
  endloop
 endfacet
 facet normal -0.498691 0.86678 0
  outer loop
   vertex 0.00635841 0.0307644 2.81
   vertex 0.0044257 0.0296524 0
   vertex 0.0044257 0.0296524 2.81
  endloop
 endfacet
 facet normal 0 0 -1
  outer loop
   vertex 0.0033715 0.0212557 0
   vertex 0.00244304 0.0221911 0
   vertex 0.0044257 0.0296524 0
  endloop
 endfacet
 facet normal 0 -0 -1
  outer loop
   vertex 0.00635841 0.0307644 0
   vertex 0.00899714 0.0181172 0
   vertex 0.0044257 0.0296524 0
  endloop
 endfacet
 facet normal 0 0 -1
  outer loop
   vertex 0.0044257 0.0296524 0
   vertex 0.00899714 0.0181172 0
   vertex 0.00464181 0.0203385 0
  endloop
 endfacet
 facet normal 0 -0 -1
  outer loop
   vertex 0.0044257 0.0296524 0
   vertex 0.00464181 0.0203385 0
   vertex 0.0033715 0.0212557 0
  endloop
 endfacet
 facet normal 0 0 -1
  outer loop
   vertex 0.00244304 0.0221911 0
   vertex 0.00182387 0.0230548 0
   vertex 0.0044257 0.0296524 0
  endloop
 endfacet
 facet normal -0.896158 -0.443735 0
  outer loop
   vertex 0.00146383 0.0237819 2.81
   vertex 0.00182387 0.0230548 0
   vertex 0.00182387 0.0230548 2.81
  endloop
 endfacet
 facet normal 0 0 1
  outer loop
   vertex 0.0044257 0.0296524 2.81
   vertex 0.00146383 0.0237819 2.81
   vertex 0.00182387 0.0230548 2.81
  endloop
 endfacet
 facet normal 0 0 1
  outer loop
   vertex 0.00635841 0.0307644 2.81
   vertex 0.0044257 0.0296524 2.81
   vertex 0.00899714 0.0181172 2.81
  endloop
 endfacet
 facet normal -0 0 1
  outer loop
   vertex 0.00182387 0.0230548 2.81
   vertex 0.00244304 0.0221911 2.81
   vertex 0.0044257 0.0296524 2.81
  endloop
 endfacet
 facet normal -0 0 1
  outer loop
   vertex 0.00244304 0.0221911 2.81
   vertex 0.0033715 0.0212557 2.81
   vertex 0.0044257 0.0296524 2.81
  endloop
 endfacet
 facet normal 0 0 1
  outer loop
   vertex 0.0044257 0.0296524 2.81
   vertex 0.0033715 0.0212557 2.81
   vertex 0.00464181 0.0203385 2.81
  endloop
 endfacet
 facet normal 0 0 1
  outer loop
   vertex 0.0044257 0.0296524 2.81
   vertex 0.00464181 0.0203385 2.81
   vertex 0.00899714 0.0181172 2.81
  endloop
 endfacet
 facet normal -0.812737 -0.582631 -0
  outer loop
   vertex 0.00182387 0.0230548 2.81
   vertex 0.00182387 0.0230548 0
   vertex 0.00244304 0.0221911 0
  endloop
 endfacet
 facet normal -0.387135 0.922023 0
  outer loop
   vertex 0.0125209 0.0333518 2.81
   vertex 0.00635841 0.0307644 0
   vertex 0.00635841 0.0307644 2.81
  endloop
 endfacet
 facet normal -0 0 1
  outer loop
   vertex 0.00635841 0.0307644 2.81
   vertex 0.00899714 0.0181172 2.81
   vertex 0.0125209 0.0333518 2.81
  endloop
 endfacet
 facet normal -0.387135 0.922023 0
  outer loop
   vertex 0.0125209 0.0333518 2.81
   vertex 0.0125209 0.0333518 0
   vertex 0.00635841 0.0307644 0
  endloop
 endfacet
 facet normal 0 0 -1
  outer loop
   vertex 0.0125209 0.0333518 0
   vertex 0.00899714 0.0181172 0
   vertex 0.00635841 0.0307644 0
  endloop
 endfacet
 facet normal -0.709711 -0.704493 -0
  outer loop
   vertex 0.00244304 0.0221911 2.81
   vertex 0.00244304 0.0221911 0
   vertex 0.0033715 0.0212557 0
  endloop
 endfacet
 facet normal -0.709711 -0.704493 0
  outer loop
   vertex 0.00244304 0.0221911 2.81
   vertex 0.0033715 0.0212557 0
   vertex 0.0033715 0.0212557 2.81
  endloop
 endfacet
 facet normal -0.585401 -0.810744 -0
  outer loop
   vertex 0.0033715 0.0212557 2.81
   vertex 0.0033715 0.0212557 0
   vertex 0.00464181 0.0203385 0
  endloop
 endfacet
 facet normal -0.812737 -0.582631 0
  outer loop
   vertex 0.00182387 0.0230548 2.81
   vertex 0.00244304 0.0221911 0
   vertex 0.00244304 0.0221911 2.81
  endloop
 endfacet
 facet normal -0.454347 -0.890825 -0
  outer loop
   vertex 0.00464181 0.0203385 2.81
   vertex 0.00464181 0.0203385 0
   vertex 0.00899714 0.0181172 0
  endloop
 endfacet
 facet normal -0.454347 -0.890825 0
  outer loop
   vertex 0.00464181 0.0203385 2.81
   vertex 0.00899714 0.0181172 0
   vertex 0.00899714 0.0181172 2.81
  endloop
 endfacet
 facet normal -0.306495 -0.951872 -0
  outer loop
   vertex 0.00899714 0.0181172 2.81
   vertex 0.00899714 0.0181172 0
   vertex 0.0208622 0.0142967 0
  endloop
 endfacet
 facet normal 0 -0 -1
  outer loop
   vertex 0.0125209 0.0333518 0
   vertex 0.0208622 0.0142967 0
   vertex 0.00899714 0.0181172 0
  endloop
 endfacet
 facet normal -0.585401 -0.810744 0
  outer loop
   vertex 0.0033715 0.0212557 2.81
   vertex 0.00464181 0.0203385 0
   vertex 0.00464181 0.0203385 2.81
  endloop
 endfacet
 facet normal -0.306495 -0.951872 0
  outer loop
   vertex 0.00899714 0.0181172 2.81
   vertex 0.0208622 0.0142967 0
   vertex 0.0208622 0.0142967 2.81
  endloop
 endfacet
 facet normal 0 0 1
  outer loop
   vertex 0.0125209 0.0333518 2.81
   vertex 0.00899714 0.0181172 2.81
   vertex 0.0208622 0.0142967 2.81
  endloop
 endfacet
 facet normal -0.243217 0.969972 0
  outer loop
   vertex 0.0345248 0.0388693 2.81
   vertex 0.0125209 0.0333518 0
   vertex 0.0125209 0.0333518 2.81
  endloop
 endfacet
 facet normal -0 0 1
  outer loop
   vertex 0.0125209 0.0333518 2.81
   vertex 0.0208622 0.0142967 2.81
   vertex 0.0345248 0.0388693 2.81
  endloop
 endfacet
 facet normal -0.243217 0.969972 0
  outer loop
   vertex 0.0345248 0.0388693 2.81
   vertex 0.0345248 0.0388693 0
   vertex 0.0125209 0.0333518 0
  endloop
 endfacet
 facet normal 0 0 -1
  outer loop
   vertex 0.0345248 0.0388693 0
   vertex 0.0208622 0.0142967 0
   vertex 0.0125209 0.0333518 0
  endloop
 endfacet
 facet normal -0.186184 -0.982515 -0
  outer loop
   vertex 0.0208622 0.0142967 2.81
   vertex 0.0208622 0.0142967 0
   vertex 0.0535489 0.00810269 0
  endloop
 endfacet
 facet normal 0 -0 -1
  outer loop
   vertex 0.0345248 0.0388693 0
   vertex 0.0535489 0.00810269 0
   vertex 0.0208622 0.0142967 0
  endloop
 endfacet
 facet normal -0.186184 -0.982515 0
  outer loop
   vertex 0.0208622 0.0142967 2.81
   vertex 0.0535489 0.00810269 0
   vertex 0.0535489 0.00810269 2.81
  endloop
 endfacet
 facet normal 0 0 1
  outer loop
   vertex 0.0345248 0.0388693 2.81
   vertex 0.0208622 0.0142967 2.81
   vertex 0.0535489 0.00810269 2.81
  endloop
 endfacet
 facet normal -0.13496 0.990851 0
  outer loop
   vertex 0.0837349 0.045572 2.81
   vertex 0.0345248 0.0388693 0
   vertex 0.0345248 0.0388693 2.81
  endloop
 endfacet
 facet normal -0 0 1
  outer loop
   vertex 0.0345248 0.0388693 2.81
   vertex 0.0535489 0.00810269 2.81
   vertex 0.0837349 0.045572 2.81
  endloop
 endfacet
 facet normal -0.13496 0.990851 0
  outer loop
   vertex 0.0837349 0.045572 2.81
   vertex 0.0837349 0.045572 0
   vertex 0.0345248 0.0388693 0
  endloop
 endfacet
 facet normal 0 0 -1
  outer loop
   vertex 0.0837349 0.045572 0
   vertex 0.0535489 0.00810269 0
   vertex 0.0345248 0.0388693 0
  endloop
 endfacet
 facet normal -0.119413 -0.992845 -0
  outer loop
   vertex 0.0535489 0.00810269 2.81
   vertex 0.0535489 0.00810269 0
   vertex 0.0799385 0.00492871 0
  endloop
 endfacet
 facet normal 0 0 -1
  outer loop
   vertex 0.0837349 0.045572 0
   vertex 0.0799385 0.00492871 0
   vertex 0.0535489 0.00810269 0
  endloop
 endfacet
 facet normal -0.119413 -0.992845 0
  outer loop
   vertex 0.0535489 0.00810269 2.81
   vertex 0.0799385 0.00492871 0
   vertex 0.0799385 0.00492871 2.81
  endloop
 endfacet
 facet normal 0 0 1
  outer loop
   vertex 0.0837349 0.045572 2.81
   vertex 0.0535489 0.00810269 2.81
   vertex 0.0799385 0.00492871 2.81
  endloop
 endfacet
 facet normal -0.0546662 0.998505 0
  outer loop
   vertex 0.162519 0.0498853 2.81
   vertex 0.0837349 0.045572 0
   vertex 0.0837349 0.045572 2.81
  endloop
 endfacet
 facet normal -0 0 1
  outer loop
   vertex 0.0837349 0.045572 2.81
   vertex 0.0799385 0.00492871 2.81
   vertex 0.162519 0.0498853 2.81
  endloop
 endfacet
 facet normal -0.0546662 0.998505 0
  outer loop
   vertex 0.162519 0.0498853 2.81
   vertex 0.162519 0.0498853 0
   vertex 0.0837349 0.045572 0
  endloop
 endfacet
 facet normal 0 0 -1
  outer loop
   vertex 0.162519 0.0498853 0
   vertex 0.160512 0.00027909 0
   vertex 0.0837349 0.045572 0
  endloop
 endfacet
 facet normal 0 0 -1
  outer loop
   vertex 0.160512 0.00027909 0
   vertex 0.0799385 0.00492871 0
   vertex 0.0837349 0.045572 0
  endloop
 endfacet
 facet normal -0.0576106 -0.998339 -0
  outer loop
   vertex 0.0799385 0.00492871 2.81
   vertex 0.0799385 0.00492871 0
   vertex 0.160512 0.00027909 0
  endloop
 endfacet
 facet normal -0.0576106 -0.998339 0
  outer loop
   vertex 0.0799385 0.00492871 2.81
   vertex 0.160512 0.00027909 0
   vertex 0.160512 0.00027909 2.81
  endloop
 endfacet
 facet normal 0 0 1
  outer loop
   vertex 0.162519 0.0498853 2.81
   vertex 0.0799385 0.00492871 2.81
   vertex 0.160512 0.00027909 2.81
  endloop
 endfacet
 facet normal 0.0191398 0.999817 0
  outer loop
   vertex 0.249445 0.0482212 2.81
   vertex 0.162519 0.0498853 0
   vertex 0.162519 0.0498853 2.81
  endloop
 endfacet
 facet normal 0 0 1
  outer loop
   vertex 0.162519 0.0498853 2.81
   vertex 0.160512 0.00027909 2.81
   vertex 0.249445 0.0482212 2.81
  endloop
 endfacet
 facet normal 0.0191398 0.999817 0
  outer loop
   vertex 0.249445 0.0482212 2.81
   vertex 0.249445 0.0482212 0
   vertex 0.162519 0.0498853 0
  endloop
 endfacet
 facet normal -0 0 -1
  outer loop
   vertex 0.249445 0.0482212 0
   vertex 0.244306 0.0016477 0
   vertex 0.162519 0.0498853 0
  endloop
 endfacet
 facet normal 0 -0 -1
  outer loop
   vertex 0.162519 0.0498853 0
   vertex 0.244306 0.0016477 0
   vertex 0.160512 0.00027909 0
  endloop
 endfacet
 facet normal 0.0163309 -0.999867 0
  outer loop
   vertex 0.160512 0.00027909 2.81
   vertex 0.160512 0.00027909 0
   vertex 0.244306 0.0016477 0
  endloop
 endfacet
 facet normal 0.0163309 -0.999867 0
  outer loop
   vertex 0.160512 0.00027909 2.81
   vertex 0.244306 0.0016477 0
   vertex 0.244306 0.0016477 2.81
  endloop
 endfacet
 facet normal 0 0 1
  outer loop
   vertex 0.249445 0.0482212 2.81
   vertex 0.160512 0.00027909 2.81
   vertex 0.244306 0.0016477 2.81
  endloop
 endfacet
 facet normal 0.0786006 0.996906 0
  outer loop
   vertex 0.355585 0.0398526 2.81
   vertex 0.249445 0.0482212 0
   vertex 0.249445 0.0482212 2.81
  endloop
 endfacet
 facet normal 0 -0 1
  outer loop
   vertex 0.264858 0.00277956 2.81
   vertex 0.355585 0.0398526 2.81
   vertex 0.249445 0.0482212 2.81
  endloop
 endfacet
 facet normal 0 0 1
  outer loop
   vertex 0.249445 0.0482212 2.81
   vertex 0.244306 0.0016477 2.81
   vertex 0.264858 0.00277956 2.81
  endloop
 endfacet
 facet normal 0.0786006 0.996906 0
  outer loop
   vertex 0.355585 0.0398526 2.81
   vertex 0.355585 0.0398526 0
   vertex 0.249445 0.0482212 0
  endloop
 endfacet
 facet normal -0 -0 -1
  outer loop
   vertex 0.355585 0.0398526 0
   vertex 0.374047 0.0121214 0
   vertex 0.249445 0.0482212 0
  endloop
 endfacet
 facet normal -0 0 -1
  outer loop
   vertex 0.374047 0.0121214 0
   vertex 0.264858 0.00277956 0
   vertex 0.249445 0.0482212 0
  endloop
 endfacet
 facet normal 0 -0 -1
  outer loop
   vertex 0.249445 0.0482212 0
   vertex 0.264858 0.00277956 0
   vertex 0.244306 0.0016477 0
  endloop
 endfacet
 facet normal 0.0549883 -0.998487 0
  outer loop
   vertex 0.244306 0.0016477 2.81
   vertex 0.244306 0.0016477 0
   vertex 0.264858 0.00277956 0
  endloop
 endfacet
 facet normal 0.0549883 -0.998487 0
  outer loop
   vertex 0.244306 0.0016477 2.81
   vertex 0.264858 0.00277956 0
   vertex 0.264858 0.00277956 2.81
  endloop
 endfacet
 facet normal 0.100329 0.994954 0
  outer loop
   vertex 0.501204 0.0251688 2.81
   vertex 0.355585 0.0398526 0
   vertex 0.355585 0.0398526 2.81
  endloop
 endfacet
 facet normal 0 -0 1
  outer loop
   vertex 0.374047 0.0121214 2.81
   vertex 0.501204 0.0251688 2.81
   vertex 0.355585 0.0398526 2.81
  endloop
 endfacet
 facet normal 0 0 1
  outer loop
   vertex 0.374047 0.0121214 2.81
   vertex 0.355585 0.0398526 2.81
   vertex 0.264858 0.00277956 2.81
  endloop
 endfacet
 facet normal 0.0852453 -0.99636 0
  outer loop
   vertex 0.264858 0.00277956 2.81
   vertex 0.264858 0.00277956 0
   vertex 0.374047 0.0121214 0
  endloop
 endfacet
 facet normal 0.0852453 -0.99636 0
  outer loop
   vertex 0.264858 0.00277956 2.81
   vertex 0.374047 0.0121214 0
   vertex 0.374047 0.0121214 2.81
  endloop
 endfacet
 facet normal 0.100329 0.994954 0
  outer loop
   vertex 0.501204 0.0251688 2.81
   vertex 0.501204 0.0251688 0
   vertex 0.355585 0.0398526 0
  endloop
 endfacet
 facet normal -0 -0 -1
  outer loop
   vertex 0.501204 0.0251688 0
   vertex 0.501204 0.0249588 0
   vertex 0.355585 0.0398526 0
  endloop
 endfacet
 facet normal 0 0 -1
  outer loop
   vertex 0.355585 0.0398526 0
   vertex 0.501204 0.0249588 0
   vertex 0.374047 0.0121214 0
  endloop
 endfacet
 facet normal 0.100447 -0.994942 0
  outer loop
   vertex 0.374047 0.0121214 2.81
   vertex 0.374047 0.0121214 0
   vertex 0.501204 0.0249588 0
  endloop
 endfacet
 facet normal 1 0 0
  outer loop
   vertex 0.501204 0.0251688 2.81
   vertex 0.501204 0.0249588 2.81
   vertex 0.501204 0.0251688 0
  endloop
 endfacet
 facet normal 0 -0 1
  outer loop
   vertex 0.501204 0.0249588 2.81
   vertex 0.501204 0.0251688 2.81
   vertex 0.374047 0.0121214 2.81
  endloop
 endfacet
 facet normal 0.100447 -0.994942 0
  outer loop
   vertex 0.374047 0.0121214 2.81
   vertex 0.501204 0.0249588 0
   vertex 0.501204 0.0249588 2.81
  endloop
 endfacet
 facet normal 1 0 0
  outer loop
   vertex 0.501204 0.0251688 0
   vertex 0.501204 0.0249588 2.81
   vertex 0.501204 0.0249588 0
  endloop
 endfacet
endsolid wing
